<?xml version="1.0" encoding="utf-8"?>
<!-- Generator: Adobe Illustrator 24.2.0, SVG Export Plug-In . SVG Version: 6.00 Build 0)  -->
<svg version="1.1" id="Layer_1" xmlns="http://www.w3.org/2000/svg" xmlns:xlink="http://www.w3.org/1999/xlink" x="0px" y="0px"
	 width="545.3px" height="165.2px" viewBox="0 0 545.3 165.2" enable-background="new 0 0 545.3 165.2" xml:space="preserve">
<path fill="#FF9439" d="M47.7,14.6c1.9,0,3.4-0.7,4.7-2.1s2-3.2,2-5.2s-0.7-3.7-2-5.1C51.1,0.7,49.5,0,47.7,0S44.3,0.7,43,2.1
	s-2,3.1-2,5.1c0,2.1,0.7,3.8,2,5.2C44.3,13.9,45.9,14.6,47.7,14.6z"/>
<path fill="#FF9439" d="M347.3,0c-1.8,0-3.4,0.7-4.7,2.1c-1.3,1.4-2,3.1-2,5.1c0,2.1,0.7,3.8,2,5.2s2.9,2.1,4.7,2.1
	c1.9,0,3.4-0.7,4.7-2.1c1.3-1.4,2-3.2,2-5.2s-0.7-3.7-2-5.1C350.8,0.7,349.2,0,347.3,0z"/>
<polygon fill="#FF9439" points="105.9,165 175.8,165 105.9,86.6 "/>
<rect y="54" fill="#FF9439" width="36.2" height="111"/>
<polygon fill="#FF9439" points="420.7,125.5 454.6,125.5 438,87.5 "/>
<polygon fill="#FF9439" points="414.1,141.3 403.2,165 472.1,165 461.8,141.3 "/>
<path fill="#FF9439" d="M296,110.8c0-13.2-4.4-23.9-13.2-32.1c-7.9-7.3-19.6-11-35.1-11h-8.2v86.1h8.2c8.1,0,14.9-0.9,20.3-2.6
	c5.4-1.8,10.3-4.7,14.6-8.6C291.5,134.5,296,123.8,296,110.8z"/>
<rect x="42.6" y="20.2" fill="#FF9439" width="10.3" height="33.8"/>
<path fill="#FF9439" d="M251.2,47.1v-2.6c0-8-1.9-14.3-5.7-18.8c-3.8-4.6-9-6.8-15.5-6.8s-11.7,2.3-15.6,7c-3.9,4.8-5.8,11-5.8,18.7
	c0,3.5,0.4,6.6,1.2,9.5H197V38.7c0-13.3-5.1-19.9-15.3-19.9c-5.6,0-10.1,2.4-13.4,7.2c-3-4.8-7-7.2-12.2-7.2c-2.3,0-4.2,0.4-5.7,1.2
	c-1.4,0.8-3.2,2.3-5.2,4.6v-4.5h-10.5V54h-10.1V38.7c0-13.3-5-19.9-15-19.9c-5.5,0-9.9,2.4-13.1,7.2c-2.9-4.8-6.9-7.2-11.9-7.2
	c-2.3,0-4.1,0.4-5.6,1.2c-1.4,0.8-3.1,2.3-5.1,4.6v-4.5H63.6V54H52.8v111H89V54h10.3V43.7c0-5.2,0.6-8.9,1.9-11.2
	c1.3-2.3,3.4-3.5,6.2-3.5c2.4,0,4.2,1,5.2,2.9s1.6,5.2,1.6,9.9V54H99.3l71.1,79.8V54l0.1-10.3c0-5.2,0.7-8.9,2-11.2
	c1.3-2.3,3.4-3.5,6.3-3.5c2.5,0,5,1,6.1,2.9s1.6,5.2,1.6,9.9V54l0.1,111.2l34.8-0.2V54c-1-1.9-1.8-4.2-2-6.9H251.2L251.2,47.1z
	 M221.5,34.2c0.6-1.1,1.4-2,2.3-2.8c0.9-0.8,1.9-1.4,3-1.8s2.3-0.6,3.5-0.6c5.5,0,8.9,3,10.4,9H220
	C220.4,36.5,220.8,35.3,221.5,34.2z M89,54H73.9V43.7c0-5.1,0.7-8.8,2-11.2s3.4-3.5,6.3-3.5c4.6,0,6.8,4.3,6.8,13
	C89,41.9,89,54,89,54z M159.9,54h-14.7V43.7c0-5.1,0.7-8.8,2-11.2c1.4-2.4,2.8-3.5,5.7-3.5c4.7,0,7,4.3,7,13V54L159.9,54z"/>
<path fill="#FF9439" d="M282.7,29.7c1.9,0,3.8,0.8,5.7,2.3l4.7-10.3c-3-1.9-5.8-2.9-8.5-2.9c-2,0-3.8,0.4-5.3,1.2
	c-1.5,0.8-3.1,2.3-5,4.4v-4.3H264V54h10.3V43.6C274.3,34.3,277.1,29.7,282.7,29.7z"/>
<path fill="#FF9439" d="M330.1,53.9c0-3.7-0.9-6.6-2.8-8.7c-1.9-2.2-5.6-4.5-11-7.1c-4-1.8-5.9-3.7-5.9-5.5c0-1.1,0.3-1.9,1-2.6
	s1.5-1,2.4-1c2,0,3.6,1.5,5,4.5l8.5-4.9c-2.8-6.4-7-9.6-12.7-9.6c-3.9,0-7.1,1.4-9.9,4.1c-2.6,2.8-4,6.3-4,10.5
	c0,3.2,0.8,5.8,2.3,7.8c1.2,1.6,3.3,3.2,6.3,4.8c1.1,0.6,2.1,1.1,3.1,1.6s2.1,1.1,3.1,1.6c2.2,1.5,3.5,3,3.9,4.6h-45.2
	c0.3,0.1,0.6,0.2,0.9,0.2c7.5,2.3,14.4,6.3,20.5,11.9c12.4,11.3,18.6,26.2,18.6,44.6c0,18.5-6.5,33.4-19.4,44.8
	c-4.5,4-9.2,7.1-14,9.4h61.3V54L330.1,53.9C330.1,54,330.1,53.9,330.1,53.9z"/>
<rect x="342.2" y="20.2" fill="#FF9439" width="10.3" height="33.8"/>
<path fill="#FF9439" d="M462.1,54V39c0-6.8-1.2-11.8-3.7-14.8c-2.9-3.6-6.9-5.3-12.1-5.3c-4.5,0-8.5,1.9-12.1,5.8v-4.5h-10.3V54
	h-13.5c1-2.9,1.5-6.1,1.5-9.5c0-7.2-2.3-13.3-6.8-18.3c-4.6-5-10.3-7.4-16.9-7.4s-12.2,2.5-16.8,7.4c-4.6,4.9-6.9,10.9-6.9,17.9
	c0,3.6,0.5,6.9,1.6,9.9h-5.8v111h22.6l51.3-111l0,0v-8.7c0-6.1,0.7-10.3,2.1-12.7c1.4-2.5,3.8-3.7,7.3-3.7c3.1,0,5.3,0.9,6.5,2.8
	c1.2,1.8,1.8,5.1,1.8,9.9v12.3h-10.8l51.5,111l52.9,0.1V54H462.1z M399.1,54h-21.9c-1.5-2.6-2.3-5.8-2.3-9.7c0-4.5,1.2-8.2,3.6-11.1
	s5.6-4.3,9.5-4.3c4,0,7.2,1.4,9.6,4.3c2.4,2.8,3.6,6.6,3.6,11.3C401.4,48.3,400.6,51.4,399.1,54z M534.86,75.58
	c0,1.59-0.2,2.98-0.79,4.37c-0.59,1.4-1.39,2.58-2.39,3.57c-0.99,0.99-2.19,1.79-3.57,2.39c-1.39,0.59-2.78,0.79-4.37,0.79h-0.2
	c-1.59,0-2.98-0.2-4.37-0.79c-1.4-0.59-2.58-1.4-3.57-2.39s-1.79-2.19-2.39-3.57c-0.59-1.4-0.79-2.78-0.79-4.37l0,0
	c0-1.59,0.2-2.98,0.79-4.37s1.39-2.58,2.39-3.57c0.99-0.99,2.19-1.79,3.57-2.39c1.39-0.59,2.78-0.79,4.37-0.79h0.2
	c1.59,0,2.98,0.2,4.37,0.79c1.4,0.59,2.58,1.39,3.57,2.39c0.99,0.99,1.79,2.19,2.39,3.57C534.47,72.39,534.86,73.99,534.86,75.58
	L534.86,75.58z M530.7,71.23c-0.75-1.33-1.7-2.27-3.02-3.02c-1.33-0.75-2.64-1.13-4.16-1.13h-0.19c-1.51,0-3.02,0.38-4.16,1.13
	c-1.33,0.75-2.27,1.7-3.02,3.02c-0.75,1.33-1.14,2.64-1.14,4.16v0.19c0,1.51,0.38,3.02,1.14,4.16c0.75,1.33,1.7,2.27,3.02,3.02
	c1.32,0.75,2.64,1.13,4.16,1.13h0.19c1.51,0,3.02-0.38,4.16-1.13c1.14-0.75,2.27-1.7,3.02-3.02c0.75-1.33,1.14-2.64,1.14-4.16l0,0
	C531.84,73.87,531.46,72.55,530.7,71.23z M519.18,70.09h4.72c1.33,0,2.45,0.38,3.02,0.94c0.75,0.56,1.14,1.51,1.14,2.64l0,0
	c0,0.56-0.19,1.33-0.56,1.89c-0.38,0.56-0.94,0.94-1.51,1.33l2.45,4.16h-2.83l-2.08-3.78l0,0l0,0h-1.7v3.78h-2.64L519.18,70.09
	L519.18,70.09z M523.72,75.38c0.56,0,0.94-0.19,1.33-0.38c0.38-0.19,0.56-0.56,0.56-1.13l0,0c0-0.38-0.19-0.75-0.56-1.13
	c-0.38-0.19-0.75-0.38-1.33-0.38h-1.89v3.02C521.83,75.38,523.72,75.38,523.72,75.38z"/>
</svg>
