<?xml version="1.0" encoding="utf-8"?>
<!-- Generator: Adobe Illustrator 24.2.0, SVG Export Plug-In . SVG Version: 6.00 Build 0)  -->
<svg version="1.1" id="Layer_1" xmlns="http://www.w3.org/2000/svg" xmlns:xlink="http://www.w3.org/1999/xlink" x="0px" y="0px"
	 width="8192px" height="107.5px" viewBox="0 0 8192 107.5" enable-background="new 0 0 8192 107.5" xml:space="preserve">
<path fill="#FFFFFF" d="M3949,9.5c1.2,0,2.2-0.5,3.1-1.4s1.3-2.1,1.3-3.4s-0.5-2.4-1.3-3.3S3950.2,0,3949,0s-2.2,0.5-3.1,1.4
	c-0.8,0.9-1.3,2-1.3,3.3c0,1.4,0.5,2.5,1.3,3.4S3947.9,9.5,3949,9.5z"/>
<path fill="#FFFFFF" d="M4144.7,0c-1.2,0-2.2,0.5-3.1,1.4c-0.8,0.9-1.3,2-1.3,3.3c0,1.4,0.5,2.5,1.3,3.4s1.9,1.4,3.1,1.4
	s2.2-0.5,3.1-1.4c0.8-0.9,1.3-2.1,1.3-3.4s-0.5-2.4-1.3-3.3C4147,0.4,4145.9,0,4144.7,0z"/>
<polygon fill="#FFFFFF" points="3987,107.7 4032.7,107.7 3987,56.5 "/>
<rect y="35.2" fill="#FFFFFF" width="3941.5" height="72.5"/>
<polygon fill="#FFFFFF" points="4192.6,81.9 4214.7,81.9 4203.9,57.1 "/>
<polygon fill="#FFFFFF" points="4188.3,92.2 4181.2,107.7 4226.2,107.7 4219.4,92.2 "/>
<path fill="#FFFFFF" d="M4111.2,72.3c0-8.6-2.9-15.6-8.6-21c-5.2-4.8-12.8-7.2-22.9-7.2h-5.4v56.2h5.4c5.3,0,9.7-0.6,13.3-1.7
	c3.5-1.2,6.7-3.1,9.5-5.6C4108.2,87.8,4111.2,80.8,4111.2,72.3z"/>
<rect x="3945.7" y="13.2" fill="#FFFFFF" width="6.7" height="22.1"/>
<path fill="#FFFFFF" d="M4081.9,30.7V29c0-5.2-1.2-9.3-3.7-12.3s-5.9-4.4-10.1-4.4s-7.6,1.5-10.2,4.6c-2.5,3.1-3.8,7.2-3.8,12.2
	c0,2.3,0.3,4.3,0.8,6.2h-8.4V25.2c0-8.7-3.3-13-10-13c-3.7,0-6.6,1.6-8.7,4.7c-2-3.1-4.6-4.7-8-4.7c-1.5,0-2.7,0.3-3.7,0.8
	c-0.9,0.5-2.1,1.5-3.4,3v-2.9h-6.9v22.1h-6.6v-10c0-8.7-3.3-13-9.8-13c-3.6,0-6.5,1.6-8.6,4.7c-1.9-3.1-4.5-4.7-7.8-4.7
	c-1.5,0-2.7,0.3-3.7,0.8c-0.9,0.5-2,1.5-3.3,3v-2.9h-6.7v22.1h-7.1v72.5h23.6V35.2h6.7v-6.7c0-3.4,0.4-5.8,1.2-7.3s2.2-2.3,4-2.3
	c1.6,0,2.7,0.7,3.4,1.9s1,3.4,1,6.5v8h-9.7l46.4,52.1l-0.1-52.1l0.1-6.7c0-3.4,0.5-5.8,1.3-7.3s2.2-2.3,4.1-2.3c1.6,0,3.3,0.7,4,1.9
	s1,3.4,1,6.5v8l0.1,72.6l22.7-0.1V35.2c-0.7-1.2-1.2-2.7-1.3-4.5H4081.9L4081.9,30.7z M4062.5,22.3c0.4-0.7,0.9-1.3,1.5-1.8
	s1.2-0.9,2-1.2c0.7-0.3,1.5-0.4,2.3-0.4c3.6,0,5.8,2,6.8,5.9h-13.5C4061.8,23.8,4062.1,23,4062.5,22.3z M3976,35.2h-9.9v-6.7
	c0-3.3,0.5-5.7,1.3-7.3s2.2-2.3,4.1-2.3c3,0,4.4,2.8,4.4,8.5C3976,27.3,3976,35.2,3976,35.2z M4022.3,35.2h-9.6v-6.7
	c0-3.3,0.5-5.7,1.3-7.3c0.9-1.6,1.8-2.3,3.7-2.3c3.1,0,4.6,2.8,4.6,8.5V35.2L4022.3,35.2z"/>
<path fill="#FFFFFF" d="M4102.5,19.4c1.2,0,2.5,0.5,3.7,1.5l3.1-6.7c-2-1.2-3.8-1.9-5.6-1.9c-1.3,0-2.5,0.3-3.5,0.8s-2,1.5-3.3,2.9
	v-2.8h-6.7v22.1h6.7v-6.8C4097,22.4,4098.8,19.4,4102.5,19.4z"/>
<path fill="#FFFFFF" d="M4133.4,35.2c0-2.4-0.6-4.3-1.8-5.7c-1.2-1.4-3.7-2.9-7.2-4.6c-2.6-1.2-3.9-2.4-3.9-3.6
	c0-0.7,0.2-1.2,0.7-1.7s1-0.7,1.6-0.7c1.3,0,2.4,1,3.3,2.9l5.6-3.2c-1.8-4.2-4.6-6.3-8.3-6.3c-2.5,0-4.6,0.9-6.5,2.7
	c-1.7,1.8-2.6,4.1-2.6,6.9c0,2.1,0.5,3.8,1.5,5.1c0.8,1,2.2,2.1,4.1,3.1c0.7,0.4,1.4,0.7,2,1c0.7,0.3,1.4,0.7,2,1c1.4,1,2.3,2,2.5,3
	h-29.5c0.2,0.1,0.4,0.1,0.6,0.1c4.9,1.5,9.4,4.1,13.4,7.8c8.1,7.4,12.1,17.1,12.1,29.1c0,12.1-4.2,21.8-12.7,29.3
	c-2.9,2.6-6,4.6-9.1,6.1h40V35.2H4133.4L4133.4,35.2z"/>
<rect x="4141.3" y="13.2" fill="#FFFFFF" width="6.7" height="22.1"/>
<path fill="#FFFFFF" d="M4219.6,35.2v-9.8c0-4.4-0.8-7.7-2.4-9.7c-1.9-2.4-4.5-3.5-7.9-3.5c-2.9,0-5.6,1.2-7.9,3.8v-2.9h-6.7v22.1
	h-8.8c0.7-1.9,1-4,1-6.2c0-4.7-1.5-8.7-4.4-11.9c-3-3.3-6.7-4.8-11-4.8s-8,1.6-11,4.8s-4.5,7.1-4.5,11.7c0,2.4,0.3,4.5,1,6.5h-3.8
	v72.5h14.8l33.5-72.5l0,0v-5.7c0-4,0.5-6.7,1.4-8.3s2.5-2.4,4.8-2.4c2,0,3.5,0.6,4.2,1.8c0.8,1.2,1.2,3.3,1.2,6.5v8h-7.1l33.6,72.5
	l3952.4,0.1V35.2H4219.6z M4178.5,35.2h-14.3c-1-1.7-1.5-3.8-1.5-6.3c0-2.9,0.8-5.4,2.4-7.2c1.6-1.9,3.7-2.8,6.2-2.8
	c2.6,0,4.7,0.9,6.3,2.8c1.6,1.8,2.4,4.3,2.4,7.4C4180,31.5,4179.5,33.5,4178.5,35.2z M4266.86,49.17c0,1.03-0.13,1.94-0.51,2.84
	c-0.39,0.91-0.91,1.68-1.55,2.33c-0.64,0.65-1.42,1.16-2.33,1.55c-0.91,0.39-1.81,0.51-2.84,0.51h-0.13c-1.03,0-1.94-0.13-2.84-0.51
	c-0.91-0.39-1.68-0.91-2.33-1.55c-0.65-0.64-1.16-1.42-1.55-2.33c-0.39-0.91-0.51-1.81-0.51-2.84l0,0c0-1.03,0.13-1.94,0.51-2.84
	c0.39-0.91,0.91-1.68,1.55-2.33c0.64-0.65,1.42-1.16,2.33-1.55c0.91-0.39,1.81-0.51,2.84-0.51h0.13c1.03,0,1.94,0.13,2.84,0.51
	c0.91,0.39,1.68,0.91,2.33,1.55s1.16,1.42,1.55,2.33C4266.6,47.1,4266.86,48.14,4266.86,49.17L4266.86,49.17z M4264.15,46.35
	c-0.49-0.86-1.1-1.47-1.97-1.97c-0.86-0.49-1.72-0.74-2.7-0.74h-0.12c-0.98,0-1.97,0.25-2.7,0.74c-0.86,0.49-1.47,1.1-1.97,1.97
	c-0.49,0.86-0.74,1.72-0.74,2.7v0.12c0,0.98,0.25,1.97,0.74,2.7c0.49,0.86,1.1,1.47,1.97,1.97c0.86,0.49,1.72,0.74,2.7,0.74h0.12
	c0.98,0,1.97-0.25,2.7-0.74s1.47-1.1,1.97-1.97c0.49-0.86,0.73-1.72,0.73-2.7l0,0C4264.89,48.06,4264.64,47.2,4264.15,46.35z
	 M4256.65,45.61h3.07c0.86,0,1.6,0.25,1.97,0.62c0.49,0.37,0.74,0.98,0.74,1.72l0,0c0,0.37-0.12,0.86-0.37,1.23
	c-0.25,0.37-0.62,0.62-0.98,0.86l1.6,2.7h-1.85l-1.35-2.45l0,0l0,0h-1.1v2.45h-1.72L4256.65,45.61L4256.65,45.61z M4259.6,49.05
	c0.37,0,0.62-0.12,0.86-0.25s0.37-0.37,0.37-0.74l0,0c0-0.25-0.12-0.49-0.37-0.74c-0.25-0.12-0.49-0.25-0.86-0.25h-1.23v1.97
	C4258.38,49.05,4259.6,49.05,4259.6,49.05z"/>
</svg>
